<?xml version="1.0" encoding="utf-8"?>
<!-- Generator: Adobe Illustrator 25.3.1, SVG Export Plug-In . SVG Version: 6.00 Build 0)  -->
<svg version="1.1" id="Layer_1" xmlns="http://www.w3.org/2000/svg" xmlns:xlink="http://www.w3.org/1999/xlink" x="0px" y="0px"
	 viewBox="0 0 261.15 182.14" style="enable-background:new 0 0 261.15 182.14;" xml:space="preserve">
<style type="text/css">
	.st0{fill:#28A6AD;}
</style>
<path class="st0" d="M212.88,140.82c12.74-42.05,4.29-77.79-31.14-104.47c-28.72-21.63-67.65-22.15-97.61-3.07
	C66.2,44.71,53.9,60.64,47.34,80.92c-6.5,20.11-5.39,40.09,1.91,59.71c-0.53,0.25-0.67,0.37-0.81,0.38
	c-11.12,0.28-8.82,1.61-11.41-7.95C22.5,79.47,55.98,24.22,109.95,12.42C164.4,0.51,217.56,36.61,226.72,91.61
	c2.32,13.93,1.65,27.64-1.91,41.26C222.47,141.87,222.38,141.94,212.88,140.82z"/>
<path d="M148.66,133.18c-10.78,1.11-10.78,1.11-11.84,8.13c-2.42,0-4.87,0-7.34,0c-1.63-6.35,0.71-12.17,6.63-14.68
	c2.89-1.23,4.22-2.89,5.31-5.72c2.15-5.59,6.8-7.9,12.66-7.9c8.64,0,17.27,0,25.79,0c4.84-18.92-6.88-42.21-25.78-51.97
	c-20.15-10.39-45.75-5.82-60.01,11.1c1.71,0.13,3.09,0.33,4.47,0.33c12.83,0.03,25.65-0.09,38.48,0.06
	c7.81,0.09,13.43,5.41,14.46,13.17c0.95,7.16-3.03,14.06-9.78,16.1c-2.95,0.89-6.19,0.81-9.28,1.17
	c-3.56,10.68-7.39,13.35-19.12,13.36c-9.66,0.01-19.32,0.03-28.98,0.06c-0.48,0-0.96,0.21-1.84,0.42
	c1.62,9.38,6.6,16.86,12.69,23.77c-7.08,2.51-10.79,1.52-14.24-4.57c-11.4-20.11-12.29-40.71-0.19-60.57
	c12.26-20.12,30.94-29.98,54.6-28.22c34.27,2.55,58.36,32.76,53.05,67.02c-1.32,8.55-6.09,16.71-10.03,24.67
	c-2.46,4.97-7.6,1.92-11.61,2.5c4.02-6.32,7.86-12.35,12.49-19.63c-10.05,0-18.42-0.21-26.75,0.21c-1.35,0.07-3.1,2.72-3.69,4.5
	C148.16,128.43,148.66,130.73,148.66,133.18z M123.86,94.37c4.26,0,8.21,0.06,12.17-0.02c4.32-0.08,6.85-2.04,6.84-6.68
	c-0.01-4.77-2.02-7.03-6.94-7.05c-15.13-0.08-30.26-0.11-45.38,0.09c-1.6,0.02-3.94,1.25-4.64,2.59c-3.86,7.45-5.73,15.4-4.86,24.33
	c9.84,0,19.44-0.02,29.04,0.01C122.94,107.68,122.94,107.7,123.86,94.37z"/>
<path class="st0" d="M148.94,172.34c1.94,3.13,3.65,5.91,5.65,9.14c-4.82,1.05-8.52,1.26-10.41-3.58
	c-2.21-5.63-6.88-5.23-12.19-4.73c-0.12,2.64-0.25,5.37-0.4,8.49c-2.34,0-4.56,0-7.16,0c0-8.98,0-18.03,0-28.5
	c6.52,0,12.95-0.28,19.34,0.1c3.98,0.24,8.09,1.34,9.4,6.02C154.58,164.32,153.85,168.85,148.94,172.34z M132.06,160.07
	c0,2.23,0,3.8,0,5.95c3.64,0,7.1,0.3,10.45-0.15c1.28-0.17,2.32-2.07,3.47-3.18c-1.17-0.87-2.27-2.36-3.52-2.5
	C139.23,159.83,135.93,160.07,132.06,160.07z"/>
<path class="st0" d="M43.12,153.33c9.2,0,18.1,0,27.33,0c0,2.09,0,4.01,0,6.72c-5.51,0-11.1-0.1-16.67,0.08
	c-1.15,0.04-2.27,1.11-3.4,1.71c1.15,0.75,2.26,2.06,3.46,2.14c3.93,0.27,7.88,0.1,12.06,0.1c0,2.49,0,4.42,0,6.96
	c-3.6,0-7.06-0.23-10.47,0.1c-1.73,0.17-3.35,1.34-5.03,2.06c1.6,0.63,3.17,1.72,4.8,1.8c4.95,0.24,9.92,0.09,15.23,0.09
	c0,2.28,0,4.2,0,6.54c-8.89,0-17.91,0-27.3,0C43.12,172.38,43.12,163.15,43.12,153.33z"/>
<path class="st0" d="M24.38,172.28c1.99,3.2,3.72,5.97,5.75,9.22c-4.77,1.01-8.53,1.31-10.4-3.51c-2.31-5.98-7.14-5.23-12.34-4.77
	c-0.17,2.8-0.33,5.54-0.51,8.55c-2.33,0-4.41,0-6.89,0c0-9.08,0-18.09,0-28.55c6.64,0,13.22-0.29,19.75,0.11
	c3.82,0.23,7.85,1.53,8.91,5.95C29.82,164.13,29.73,168.94,24.38,172.28z M7.36,166.02c3.87,0,7.35,0.26,10.75-0.14
	c1.22-0.14,2.26-1.84,3.39-2.83c-1.06-0.99-2.05-2.71-3.21-2.83c-3.55-0.37-7.16-0.14-10.93-0.14
	C7.36,162.27,7.36,163.73,7.36,166.02z"/>
<path class="st0" d="M167.04,153.36c2.68,0,4.77,0,7.44,0c0,5.04-0.08,9.82,0.02,14.6c0.12,5.66,1.73,7.07,7.78,7.13
	c6.51,0.06,8.31-1.33,8.47-6.98c0.14-4.79,0.03-9.59,0.03-14.7c2.53,0,4.6,0,7.18,0c0,6.48,0,12.91-0.01,19.33
	c0,0.32-0.12,0.65-0.21,0.97c-1.76,6.13-8.11,9.07-17.89,8.3c-7.84-0.62-12.36-4.2-12.74-10.76
	C166.77,165.47,167.04,159.65,167.04,153.36z"/>
<path class="st0" d="M111.48,154.08c0,2.64,0,4.4,0,5.97c-4.23,0-8.17-0.03-12.11,0.01c-6.62,0.06-8.37,1.67-8.34,7.61
	c0.02,5.78,1.83,7.35,8.57,7.41c2,0.02,4,0.03,5.99-0.06c1.81-0.09,3.61-0.32,5.8-0.53c0,2.06,0,3.95,0,6.61
	c-6.47,0-12.92,0.68-19.15-0.19c-6.38-0.89-9.01-5.52-9.07-12.94c-0.06-7.94,2.39-12.72,8.78-13.68
	C98.19,153.35,104.68,154.08,111.48,154.08z"/>
<path class="st0" d="M250.23,181.85c-2.97,0-4.93,0-7.55,0c0-7.23,0-14.28,0-21.75c-4.09,0-7.52,0-11.29,0c0-2.35,0-4.26,0-6.59
	c9.74,0,19.59,0,29.75,0c0,2,0,3.92,0,6.37c-3.44,0-6.86,0-10.92,0C250.23,167.42,250.23,174.47,250.23,181.85z"/>
<path class="st0" d="M212.02,153.25c2.39,0,4.35,0,6.7,0c0,9.46,0,18.79,0,28.47c-2.14,0-4.2,0-6.7,0
	C212.02,172.39,212.02,163.05,212.02,153.25z"/>
<path d="M219.81,141.14c13.82-45.42,4.65-84.02-33.77-112.84C154.89,4.94,112.68,4.38,80.19,24.99
	c-19.46,12.34-32.8,29.54-39.91,51.45c-7.05,21.72-5.84,43.3,2.08,64.49c-0.58,0.27-0.73,0.4-0.88,0.41
	c-12.06,0.31-9.56,1.73-12.37-8.59C13.33,74.87,49.65,15.2,108.18,2.46c59.06-12.86,116.71,26.13,126.65,85.53
	c2.52,15.05,1.79,29.86-2.07,44.57C230.21,142.27,230.12,142.35,219.81,141.14z"/>
</svg>
