<svg id="Layer_1" data-name="Layer 1" xmlns="http://www.w3.org/2000/svg" viewBox="0 0 136.27 34.71"><defs><style>.cls-1,.cls-2{fill:#28a6ad;}.cls-2{font-size:24px;font-family:PollyRounded-Bold, Polly Rounded;font-weight:700;}.cls-3,.cls-4,.cls-5{fill:#65c9d7;stroke:#28a6ad;stroke-linecap:round;stroke-miterlimit:10;}.cls-3{stroke-width:0.85px;}.cls-4{stroke-width:1.01px;}.cls-5{stroke-width:0.81px;}.cls-6{fill:#efba6b;}</style></defs><path class="cls-1" d="M36,5.88S28.21-.85,17.79,5c-.6.3-4.59,1.94-6.89,8.58H6.51s-.44.65,0,1H11.3a1,1,0,0,1,0,1.35H3.47a.78.78,0,0,0,0,1.3h6.84s.94.65-.05,1.2H5.37s-.8.54-.15,1.14a17.76,17.76,0,0,0,2.94,0,7,7,0,0,1-3.39,3.69c1.1.5,6.93.75,6.93.75L8.11,27.78s9,8.53,18.81,5.89c3.79-.45,9.68-3.29,10.47-5.94,1.9-2.19,4.89-9.34,4.89-9.34L45.72,14s1-3.4-1.84-2.7a13.25,13.25,0,0,0-3.54,1.2S39.29,7.43,36,5.88Z"/><path d="M41.58,11.21c.84-.24,1.6-.49,2.38-.66a3.44,3.44,0,0,1,1.28,0A2,2,0,0,1,47,13.44a15,15,0,0,1-2,3.63,17.49,17.49,0,0,0-3.61,6.33,12.94,12.94,0,0,1-3.23,5.24c-.16.18-.31.44-.51.49a4.15,4.15,0,0,1-1,0c0-.34-.1-.76.06-1,.39-.57.94-1,1.35-1.6A15.15,15.15,0,0,0,40,11.07C37.7,5.62,33.45,2.51,27.64,1.6a15.1,15.1,0,0,0-8.21,1c-.5.2-1,.35-1.24-.24s.19-.88.67-1.08a17.14,17.14,0,0,1,22.4,9.12Zm1.15,6.46a16.13,16.13,0,0,0,1-1.28,32.39,32.39,0,0,0,1.71-2.81c.2-.38.33-1.09.12-1.32a1.77,1.77,0,0,0-1.37-.32,7,7,0,0,0-1.81.6.66.66,0,0,0-.26.54C42.31,14.58,42.52,16.08,42.73,17.67Z"/><path d="M9.82,27.88a17.12,17.12,0,0,0,6.54,4.05c1.8.58,3.69.85,5.54,1.3a1.21,1.21,0,0,1,.77.53c.21.45-.21.84-.85.8a19.87,19.87,0,0,1-7.44-1.91,20.8,20.8,0,0,1-5.51-3.72c-1-1-1-1.23,0-2.14.2-.18.38-.44.62-.51a4.18,4.18,0,0,1,1,0,3.73,3.73,0,0,1-.09,1C10.35,27.51,10.06,27.66,9.82,27.88Z"/><path d="M16.84,10.49A8.4,8.4,0,0,1,20.67,12c.21.14.2.62.29.94-.33.07-.7.28-1,.18-.93-.32-1.8-.85-2.74-1.11a2,2,0,0,0-1.62.24c-.23.2-.09,1.11.17,1.52,1.07,1.66,2.26,3.25,3.41,4.86.33.45,1,.89.41,1.48s-1.07-.12-1.4-.56q-1.75-2.31-3.42-4.66a4.66,4.66,0,0,1-.55-1.25C13.64,11.75,14.6,10.46,16.84,10.49Z"/><path d="M5.57,23.15a20.61,20.61,0,0,0,2.23.23c1.45,0,2.89-.13,4.34-.16.34,0,.9.11,1,.3a1.65,1.65,0,0,1-.23,1.07,2.86,2.86,0,0,1-.75.94c-.3.23-.79.54-1,.43s-.35-.66-.53-1.06l-4.65-.33a1.57,1.57,0,0,1-1.59-1.23,1.67,1.67,0,0,1,.75-1.89,9.06,9.06,0,0,0,1.15-1c.85-.86.88-.89,2.41-.63Z"/><path d="M10.25,13.34H8.83a16.68,16.68,0,0,1,3.59-7.28c.34-.41.72-.79,1.1-1.18s.79-.52,1.08-.06a1.09,1.09,0,0,1-.09,1A16.71,16.71,0,0,0,10.25,13.34Z"/><path d="M25.31,34.71c-.27-.25-.7-.46-.79-.77-.14-.52.32-.72.78-.81,1.81-.37,3.61-.76,5.42-1.08.27,0,.61.26.91.4-.17.31-.28.83-.52.9-1.47.4-3,.72-4.45,1a11.93,11.93,0,0,1-1.2.16Z"/><path d="M32.56,18.74c.43,0,.86,0,1.29,0,.59,0,.75.36.5.88a2,2,0,0,1-1.78,1.17,1.91,1.91,0,0,1-1.85-1.06c-.35-.62-.15-1,.55-1,.43,0,.86,0,1.29,0Z"/><path d="M28.67,18.39a1.07,1.07,0,0,1-1.1-1,1,1,0,0,1,1-1.09,1,1,0,0,1,1.09,1A1,1,0,0,1,28.67,18.39Z"/><path d="M37.24,17.32a1.11,1.11,0,0,1-1.08,1.07,1.07,1.07,0,0,1,0-2.13A1.06,1.06,0,0,1,37.24,17.32Z"/><path d="M32.8,32.32a2,2,0,0,1-.39-.7c-.06-.4.73-1,1.2-.93a1.1,1.1,0,0,1,.67.63C34.41,31.74,33.62,32.33,32.8,32.32Z"/><path d="M17.61,3.38a3.92,3.92,0,0,1-1.11.67c-.19,0-.48-.42-.72-.66a4.14,4.14,0,0,1,1-.83c.18-.07.53.3.81.47Z"/><text class="cls-2" transform="translate(47.16 27.22)">Recruit</text><ellipse class="cls-3" cx="2.53" cy="19" rx="0.46" ry="0.14"/><ellipse class="cls-4" cx="1.16" cy="16.45" rx="0.66" ry="0.14"/><ellipse class="cls-5" cx="4.41" cy="14.15" rx="0.47" ry="0.12"/><ellipse class="cls-6" cx="32.47" cy="20.1" rx="1.18" ry="0.67"/></svg>