<svg id="Layer_1" data-name="Layer 1" xmlns="http://www.w3.org/2000/svg" viewBox="0 0 110.48 33.17"><defs><style>.cls-1{fill:#fff;}.cls-2,.cls-3{fill:#28a6ad;}.cls-3{font-size:20px;font-family:PollyRounded-Bold, Polly Rounded;font-weight:700;}.cls-4{fill:none;stroke:#28a6ad;stroke-linecap:round;stroke-miterlimit:10;stroke-width:2.27px;}</style></defs><path class="cls-1" d="M34.65,0h72.18a3.64,3.64,0,0,1,3.64,3.64V30.15a3,3,0,0,1-3,3H34.65a0,0,0,0,1,0,0V0A0,0,0,0,1,34.65,0Z"/><path class="cls-2" d="M3.37,0H35.62a0,0,0,0,1,0,0V33.17a0,0,0,0,1,0,0H3a3,3,0,0,1-3-3V3.37A3.37,3.37,0,0,1,3.37,0Z"/><path class="cls-1" d="M29.41,23.22a10.25,10.25,0,0,0-3.74-4.8,5.79,5.79,0,0,0,3.18-5.07,5.35,5.35,0,0,0-1.63-4,5.68,5.68,0,0,0-8.28.26,5.74,5.74,0,0,0,1.59,8.75,12.5,12.5,0,0,0-4.08,4.59c-.71-.16-1,.1-.95.79a.71.71,0,0,1-.2.46C13.2,26.43,11.12,28.71,9,31a2,2,0,0,1-2.25.3,3.56,3.56,0,0,1-2.32-3.41,1.23,1.23,0,0,1,.33-.75q3.23-3.17,6.5-6.29a.8.8,0,0,1,.63-.15.77.77,0,0,0,.78-.77c0-.18,0-.46.11-.53.72-.47.4-1,.16-1.56A11.33,11.33,0,1,1,29.87,23C29.74,23,29.6,23.11,29.41,23.22Z"/><path class="cls-1" d="M25.12,18.82A12.63,12.63,0,0,1,24,19.87,1,1,0,0,0,23.67,21c.22.91.36,1.84.62,2.73a1.41,1.41,0,0,1-.46,1.69,10.16,10.16,0,0,0-.82.87,19.2,19.2,0,0,1-1.48-1.34.83.83,0,0,1-.11-.7c.27-1,.54-1.95.9-2.9a1.46,1.46,0,0,0-.38-1.85,5.05,5.05,0,0,1-.53-.67Z"/><text class="cls-3" transform="translate(35.43 22.55)">Recruit</text><line class="cls-4" x1="37.34" y1="26.28" x2="107.79" y2="26.28"/></svg>